Coordinates
version=1
nRows=49
nColumns=12
inDegrees=yes

Units are S.I. units (second, meters, Newtons, ...)
Angles are in degrees

endheader
time	SC_y	SC_z	SC_x	AC_y	AC_z	AC_x	GH_y	GH_z	GH_yy	EL_x	PS_y
       0.0              -26.74          1.337          57.11          33.06          6.408          -15.5          162.5          83.63         -105.6          65.66           37.2
    0.0226              -26.74          1.339           57.1          33.07          6.407         -15.49          162.5          83.63         -105.6          65.67           37.2
    0.0452              -26.74          1.341          57.09          33.07          6.407         -15.49          162.5          83.63         -105.5          65.67           37.2
    0.0678              -26.75          1.343          57.09          33.08          6.407         -15.49          162.5          83.62         -105.5          65.67          37.19
    0.0904              -26.75          1.346          57.08          33.08          6.406         -15.49          162.4          83.62         -105.5          65.68          37.19
     0.113              -26.75          1.348          57.07          33.09          6.405         -15.49          162.4          83.62         -105.4          65.68          37.19
    0.1356              -26.75          1.351          57.06           33.1          6.405         -15.49          162.3          83.62         -105.4          65.68          37.18
    0.1582              -26.75          1.354          57.05           33.1          6.404         -15.48          162.3          83.62         -105.3          65.69          37.18
    0.1808              -26.76          1.357          57.04          33.11          6.403         -15.48          162.3          83.61         -105.3          65.69          37.17
    0.2034              -26.76          1.361          57.03          33.12          6.403         -15.48          162.2          83.61         -105.2           65.7          37.17
     0.226              -26.76          1.364          57.02          33.13          6.402         -15.48          162.2          83.61         -105.2           65.7          37.16
    0.2486              -26.77          1.368          57.01          33.14          6.401         -15.47          162.1           83.6         -105.1          65.71          37.15
    0.2712              -26.77          1.373          56.99          33.15            6.4         -15.47          162.1           83.6         -105.0          65.71          37.15
    0.2938              -26.77          1.377          56.98          33.16          6.399         -15.47          162.0           83.6         -105.0          65.72          37.14
    0.3164              -26.78          1.382          56.96          33.17          6.398         -15.46          161.9          83.59         -104.9          65.73          37.13
     0.339              -26.78          1.388          56.95          33.18          6.397         -15.46          161.8          83.59         -104.8          65.73          37.12
    0.3616              -26.79          1.394          56.93           33.2          6.396         -15.45          161.8          83.58         -104.7          65.74          37.11
    0.3842              -26.79            1.4          56.91          33.21          6.394         -15.45          161.7          83.58         -104.6          65.75           37.1
    0.4068               -26.8          1.407          56.88          33.23          6.393         -15.45          161.6          83.57         -104.5          65.76          37.09
    0.4294              -26.81          1.415          56.86          33.25          6.391         -15.44          161.5          83.57         -104.4          65.77          37.08
     0.452              -26.81          1.424          56.83          33.27          6.389         -15.43          161.4          83.56         -104.2          65.78          37.07
    0.4746              -26.82          1.433           56.8          33.29          6.387         -15.43          161.2          83.55         -104.1           65.8          37.05
    0.4972              -26.83          1.443          56.77          33.31          6.385         -15.42          161.1          83.54         -103.9          65.81          37.04
    0.5198              -26.84          1.455          56.74          33.34          6.383         -15.41          160.9          83.53         -103.7          65.82          37.02
    0.5424              -26.85          1.467           56.7          33.37           6.38          -15.4          160.8          83.52         -103.5          65.84           37.0
     0.565              -26.86          1.482          56.65           33.4          6.377         -15.39          160.6          83.51         -103.3          65.86          36.98
    0.5876              -26.87          1.497           56.6          33.44          6.373         -15.38          160.4           83.5         -103.1          65.88          36.95
    0.6102              -26.89          1.515          56.55          33.48           6.37         -15.37          160.1          83.48         -102.8          65.91          36.93
    0.6328              -26.91          1.536          56.48          33.53          6.365         -15.35          159.8          83.47         -102.5          65.94           36.9
    0.6554              -26.93          1.559          56.41          33.58           6.36         -15.34          159.5          83.45         -102.1          65.97          36.86
     0.678              -26.95          1.585          56.33          33.64          6.355         -15.32          159.2          83.43         -101.7           66.0          36.82
    0.7006              -26.97          1.615          56.23          33.71          6.348          -15.3          158.8           83.4         -101.2          66.04          36.77
    0.7232               -27.0          1.649          56.12          33.79          6.341         -15.27          158.3          83.37         -100.6          66.09          36.72
    0.7458              -27.03           1.69           56.0          33.89          6.332         -15.24          157.8          83.34         -100.0          66.15          36.66
    0.7684              -27.07          1.737          55.85           34.0          6.322         -15.21          157.1           83.3         -99.26          66.21          36.58
     0.791              -27.12          1.792          55.67          34.13           6.31         -15.17          156.4          83.26         -98.37          66.29           36.5
    0.8136              -27.18          1.859          55.47          34.28          6.296         -15.12          155.5           83.2         -97.33          66.38           36.4
    0.8362              -27.24          1.938          55.22          34.47          6.279         -15.07          154.4          83.14         -96.07          66.48          36.27
    0.8588              -27.32          2.034          54.92          34.69          6.259          -15.0          153.1          83.06         -94.55          66.61          36.13
    0.8814              -27.42          2.151          54.55          34.96          6.234         -14.92          151.5          82.97         -92.69          66.77          35.95
     0.904              -27.54          2.295           54.1           35.3          6.203         -14.81          149.6          82.85          -90.4          66.97          35.72
    0.9266              -27.69          2.475          53.53          35.72          6.164         -14.69          147.1           82.7         -87.54          67.22          35.44
    0.9492              -27.88          2.702          52.82          36.25          6.116         -14.53          144.0          82.52         -83.94          67.53          35.09
    0.9718              -28.12           2.99          51.91          36.92          6.054         -14.32          140.1          82.28         -79.36          67.92          34.65
    0.9944              -28.43           3.36          50.75          37.79          5.975         -14.06          135.1          81.98         -73.49          68.42          34.08
     1.017              -28.82          3.833          49.26          38.89          5.873         -13.72          128.7           81.6         -65.97          69.07          33.35
      1.04              -29.33          4.439          47.36           40.3          5.744         -13.29          120.5           81.1         -56.37           69.9          32.41
     1.062              -29.96            5.2          44.97          42.08          5.581         -12.75          110.2          80.48         -44.29          70.93          31.24
     1.085              -30.74          6.127          42.06          44.24          5.382         -12.09          97.65          79.73         -29.56           72.2           29.8
